<svg width="66" height="43" viewBox="0 0 66 43" fill="none" xmlns="http://www.w3.org/2000/svg">
<rect x="0.5" y="0.5" width="65" height="42" rx="1.5" fill="white" stroke="#282D37"/>
<rect x="6.22644" y="34.3606" width="52.3019" height="2.77419" rx="1" fill="#99AEC8"/>
<rect x="31.1321" y="22.9465" width="27.3962" height="1.3871" rx="0.693548" fill="#282D37"/>
<rect x="31.1321" y="16.6055" width="27.3962" height="1.3871" rx="0.693548" fill="#282D37"/>
<rect x="6.47644" y="7.85913" width="16.934" height="18.523" rx="1.75" fill="#99AEC8" stroke="#282D37" stroke-width="0.5"/>
<path d="M14.9432 18.0049C16.2902 18.0049 17.1988 18.1889 17.8281 18.484C18.4489 18.7751 18.8117 19.1805 19.0591 19.6588C19.3032 20.1307 19.4351 20.6718 19.581 21.2698C19.5867 21.2931 19.5924 21.3166 19.5982 21.3401C19.7485 21.9553 19.9168 22.6202 20.2501 23.2517C20.3107 23.3666 20.308 23.5217 20.2439 23.6524C20.1806 23.7813 20.0806 23.8459 19.9779 23.8459H9.90851C9.8058 23.8459 9.70578 23.7813 9.64255 23.6524C9.57846 23.5217 9.57573 23.3666 9.63637 23.2517C9.9696 22.6202 10.138 21.9553 10.2882 21.3401C10.294 21.3166 10.2997 21.2931 10.3054 21.2698C10.4513 20.6718 10.5833 20.1307 10.8273 19.6588C11.0747 19.1805 11.4375 18.7751 12.0583 18.484C12.6876 18.1889 13.5962 18.0049 14.9432 18.0049Z" fill="#E1E6E9" stroke="#99AEC8" stroke-width="0.5" stroke-linejoin="round"/>
<path d="M18.4293 15.2184C18.4293 17.1859 16.8644 18.773 14.9435 18.773C13.0226 18.773 11.4576 17.1859 11.4576 15.2184C11.4576 13.251 13.0226 11.6638 14.9435 11.6638C16.8644 11.6638 18.4293 13.251 18.4293 15.2184Z" fill="#E1E6E9" stroke="#99AEC8" stroke-width="0.5"/>
<rect x="31.1321" y="10.2644" width="27.3962" height="1.3871" rx="0.693548" fill="#282D37"/>
</svg>
