<svg width="88" height="55" viewBox="0 0 88 55" fill="none" xmlns="http://www.w3.org/2000/svg">
<path d="M69.2604 8H3C1.89543 8 1 8.89543 1 10V52.2298C1 53.3343 1.89543 54.2298 3 54.2298H32.0087C32.5183 54.2298 33.0087 54.0352 33.3797 53.6858L70.6315 18.6087C71.0329 18.2307 71.2604 17.7039 71.2604 17.1526V10C71.2604 8.89543 70.365 8 69.2604 8Z" fill="white" stroke="#ADB1B9"/>
<rect x="6.91675" y="43.4427" width="26.625" height="3.08198" rx="1" fill="#E1E6E9"/>
<rect x="6.35864" y="14.9125" width="19.1454" height="21.1336" rx="2" fill="#ADB1B9"/>
<path d="M15.9312 26.4337C17.4343 26.4337 18.4433 26.6445 19.1398 26.9831C19.8273 27.3173 20.2259 27.7836 20.497 28.3342C20.7508 28.8497 20.8918 29.434 21.0458 30.0727C21.0602 30.1321 21.0746 30.1921 21.0893 30.2525C21.2589 30.9504 21.4552 31.6974 21.848 32.4022C21.9102 32.5138 21.9093 32.6636 21.848 32.79C21.7876 32.9144 21.6898 32.9783 21.5867 32.9783H10.2756C10.1725 32.9783 10.0747 32.9144 10.0144 32.79C9.95305 32.6636 9.95215 32.5138 10.0144 32.4022C10.4071 31.6974 10.6034 30.9504 10.773 30.2525C10.7877 30.1921 10.8021 30.1321 10.8165 30.0727C10.9706 29.434 11.1115 28.8497 11.3653 28.3342C11.6365 27.7836 12.035 27.3173 12.7226 26.983C13.419 26.6445 14.428 26.4337 15.9312 26.4337Z" fill="#E1E6E9" stroke="#ADB1B9" stroke-width="0.5" stroke-linejoin="round"/>
<path d="M19.7838 23.3659C19.7838 25.5692 18.052 27.3426 15.9312 27.3426C13.8105 27.3426 12.0786 25.5692 12.0786 23.3659C12.0786 21.1625 13.8105 19.3892 15.9312 19.3892C18.052 19.3892 19.7838 21.1625 19.7838 23.3659Z" fill="#E1E6E9" stroke="#ADB1B9" stroke-width="0.5"/>
<path d="M70.0016 17.2457L32.8574 17.2457C32.5821 17.2457 32.4444 17.2457 32.3389 17.2984C32.242 17.3468 32.1635 17.4254 32.1151 17.5222C32.0624 17.6277 32.0624 17.7654 32.0624 18.0407L32.0624 53.1545C32.0624 53.7302 32.0624 54.0181 32.1757 54.1563C32.2786 54.2817 32.4358 54.3495 32.5976 54.338C32.7759 54.3254 32.9851 54.1277 33.4035 53.7322L70.5478 18.6184C70.9959 18.1948 71.2199 17.983 71.2401 17.8007C71.2584 17.6354 71.1933 17.4719 71.0665 17.3644C70.9266 17.2457 70.6183 17.2457 70.0016 17.2457Z" fill="#99AEC8" stroke="#282D37"/>
<rect width="11.1984" height="1.47917" rx="0.739583" transform="translate(52.7772 33.3369) rotate(-90.0207)" fill="white"/>
<rect width="16.8823" height="1.47917" rx="0.739583" transform="matrix(-0.000528831 -1 1 -0.000242961 46.8646 38.7103)" fill="white"/>
<rect width="22.9681" height="1.47917" rx="0.739583" transform="matrix(-0.000528831 -1 1 -0.000242961 40.948 44.8755)" fill="white"/>
<path d="M66.9034 13.169L67.7001 4.64783L76.4634 5.42248L74.0734 7.74643L76.4634 10.845L78.0568 13.169L79.6501 17.8169V21.6902L77.2601 26.3381L74.8701 27.8874V23.2395C74.8701 23.2395 74.8701 20.1409 73.2768 17.0422C71.6834 13.9436 69.2934 11.6197 69.2934 11.6197L66.9034 13.169Z" fill="white"/>
<path d="M72.48 29.4368C72.48 29.4368 69.2933 36.4086 56.5466 31.7607L61.3266 27.8875C63.7242 29.5156 72.48 29.4368 72.48 29.4368Z" fill="white"/>
<path d="M61.7134 27.308C62.0889 27.375 62.5065 27.6893 62.9458 27.8479M62.9458 27.8479C79.513 33.8298 85.1855 18.9748 74.1717 7.7737L77.0127 5.44631C77.0263 5.43519 77.0195 5.41362 77.0019 5.4116L67.1453 4.28742C67.1339 4.28612 67.1237 4.29426 67.1228 4.30537L66.3295 14.1537C66.3281 14.1712 66.3492 14.1818 66.3629 14.1704L69.532 11.5423M62.9458 27.8479C61.7477 27.3221 61.3804 27.0733 61.1569 26.8154M56.6092 31.7389C56.6839 31.7522 56.7603 31.7754 56.8382 31.8051M56.8382 31.8051C57.0319 31.8791 57.235 31.994 57.4448 32.101M56.8382 31.8051C57.0036 31.8924 57.2026 31.9897 57.4448 32.101M56.8382 31.8051C56.3975 31.5726 56.1956 31.4114 56.0526 31.2463M57.4448 32.101C57.5747 32.1671 57.7071 32.2303 57.8416 32.2788M57.4448 32.101C57.5659 32.1566 57.6978 32.2157 57.8416 32.2788M57.8416 32.2788C74.4088 38.2607 80.0813 23.4057 69.0674 12.2046" stroke="#282D37" stroke-width="0.8"/>
</svg>
